STARTFONT 2.1
COMMENT
COMMENT Converted from OpenType font "moon_phases.ttf" by "otf2bdf 3.0".
COMMENT
FONT -FreeType-Moon Phases-Medium-R-Normal--33-240-100-100-P-244-ISO10646-1
SIZE 24 100 100
FONTBOUNDINGBOX 32 33 0 0
STARTPROPERTIES 19
FOUNDRY "FreeType"
FAMILY_NAME "Moon Phases"
WEIGHT_NAME "Medium"
SLANT "R"
SETWIDTH_NAME "Normal"
ADD_STYLE_NAME ""
PIXEL_SIZE 33
POINT_SIZE 240
RESOLUTION_X 100
RESOLUTION_Y 100
SPACING "P"
AVERAGE_WIDTH 244
CHARSET_REGISTRY "ISO10646"
CHARSET_ENCODING "1"
FONT_ASCENT 32
FONT_DESCENT 0
COPYRIGHT "© 1995 by Curtis Clark, free for personal use"
_OTF_FONTFILE "moon_phases.ttf"
_OTF_PSNAME "MoonPhases-Regular"
ENDPROPERTIES
CHARS 59
STARTCHAR 0020
ENCODING 32
SWIDTH 990 0
DWIDTH 33 0
BBX 0 0 0 0
BITMAP
ENDCHAR
STARTCHAR 002A
ENCODING 42
SWIDTH 990 0
DWIDTH 33 0
BBX 30 30 2 1
BITMAP
001FE000
00FFF800
03FFFE00
07FFFF00
0FFFFF80
1FFFFFC0
3FFFFFE0
3FFFFFF0
7FFFFFF0
7FFFFFF8
FFFFFFF8
FFFFFFF8
FFFFFFF8
FFFFFFFC
FFFFFFFC
FFFFFFFC
FFFFFFFC
FFFFFFF8
FFFFFFF8
FFFFFFF8
7FFFFFF8
7FFFFFF0
3FFFFFF0
3FFFFFE0
1FFFFFC0
0FFFFF80
07FFFF00
03FFFE00
00FFF800
001FC000
ENDCHAR
STARTCHAR 002B
ENCODING 43
SWIDTH 960 0
DWIDTH 32 0
BBX 28 28 3 2
BITMAP
003F8000
01FFF000
03FFFC00
0FFFFE00
1FFFFF00
1FFFFF80
3FFFFF80
7FFFFFC0
7FFFFFC0
FFFFFFE0
FFFFFFE0
FFFFFFE0
FFFFFFE0
FFFFFFF0
FFFFFFF0
FFFFFFE0
FFFFFFE0
FFFFFFE0
FFFFFFE0
7FFFFFE0
7FFFFFC0
3FFFFF80
3FFFFF80
1FFFFF00
0FFFFE00
03FFFC00
01FFF000
003F8000
ENDCHAR
STARTCHAR 0030
ENCODING 48
SWIDTH 990 0
DWIDTH 33 0
BBX 30 30 2 1
BITMAP
001FE000
00FFF800
03FFFE00
07FFFF00
0FFFFF80
1FFFFFC0
3FFFFFE0
3FFFFFF0
7FFFFFF0
7FFFFFF8
FFFFFFF8
FFFFFFF8
FFFFFFF8
FFFFFFFC
FFFFFFFC
FFFFFFFC
FFFFFFFC
FFFFFFF8
FFFFFFF8
FFFFFFF8
7FFFFFF8
7FFFFFF0
3FFFFFF0
3FFFFFE0
1FFFFFC0
0FFFFF80
07FFFF00
03FFFE00
00FFF800
001FC000
ENDCHAR
STARTCHAR 003D
ENCODING 61
SWIDTH 0 0
DWIDTH 0 0
BBX 28 28 3 2
BITMAP
003F8000
01FFF000
03FFFC00
0FFFFE00
1FFFFF00
1FFFFF80
3FFFFF80
7FFFFFC0
7FFFFFC0
FFFFFFE0
FFFFFFE0
FFFFFFE0
FFFFFFE0
FFFFFFF0
FFFFFFF0
FFFFFFE0
FFFFFFE0
FFFFFFE0
FFFFFFE0
7FFFFFE0
7FFFFFC0
3FFFFF80
3FFFFF80
1FFFFF00
0FFFFE00
03FFFC00
01FFF000
003F8000
ENDCHAR
STARTCHAR 0040
ENCODING 64
SWIDTH 990 0
DWIDTH 33 0
BBX 30 30 2 1
BITMAP
001FE000
00E03800
03000600
06000100
08000080
10000040
30000020
20000030
40000010
40000018
80000008
80000008
80000008
8000000C
80000004
80000004
8000000C
80000008
80000008
80000008
40000018
40000010
20000030
30000020
10000040
08000080
06000100
03000600
00E03800
001FC000
ENDCHAR
STARTCHAR 0041
ENCODING 65
SWIDTH 990 0
DWIDTH 33 0
BBX 30 30 2 1
BITMAP
001FE000
00FFF800
03FFF600
07FFFD00
0FFFFE80
1FFFFF40
3FFFFFA0
3FFFFFB0
7FFFFFD0
7FFFFFD8
FFFFFFE8
FFFFFFE8
FFFFFFE8
FFFFFFEC
FFFFFFE4
FFFFFFE4
FFFFFFEC
FFFFFFE8
FFFFFFE8
FFFFFFE8
7FFFFFD8
7FFFFFD0
3FFFFFB0
3FFFFFA0
1FFFFF40
0FFFFE80
07FFFD00
03FFF600
00FFF800
001FC000
ENDCHAR
STARTCHAR 0042
ENCODING 66
SWIDTH 990 0
DWIDTH 33 0
BBX 30 30 2 1
BITMAP
001FE000
00FFF800
03FFF600
07FFF900
0FFFFC80
1FFFFE40
3FFFFF20
3FFFFF30
7FFFFF90
7FFFFF98
FFFFFF88
FFFFFFC8
FFFFFFC8
FFFFFFCC
FFFFFFC4
FFFFFFC4
FFFFFFCC
FFFFFFC8
FFFFFFC8
FFFFFF88
7FFFFF98
7FFFFF90
3FFFFF30
3FFFFF20
1FFFFE40
0FFFFC80
07FFF900
03FFF600
00FFF800
001FC000
ENDCHAR
STARTCHAR 0043
ENCODING 67
SWIDTH 990 0
DWIDTH 33 0
BBX 30 30 2 1
BITMAP
001FE000
00FFB800
03FFE600
07FFF100
0FFFF880
1FFFFC40
3FFFFC20
3FFFFE30
7FFFFE10
7FFFFF18
FFFFFF08
FFFFFF08
FFFFFF08
FFFFFF0C
FFFFFF04
FFFFFF04
FFFFFF0C
FFFFFF08
FFFFFF08
FFFFFF08
7FFFFF18
7FFFFE10
3FFFFE30
3FFFFC20
1FFFFC40
0FFFF880
07FFF100
03FFE600
00FFB800
001FC000
ENDCHAR
STARTCHAR 0044
ENCODING 68
SWIDTH 990 0
DWIDTH 33 0
BBX 30 30 2 1
BITMAP
001FE000
00FFB800
03FFC600
07FFE100
0FFFF080
1FFFF040
3FFFF820
3FFFF830
7FFFFC10
7FFFFC18
FFFFFC08
FFFFFC08
FFFFFC08
FFFFFC0C
FFFFFC04
FFFFFC04
FFFFFC0C
FFFFFC08
FFFFFC08
FFFFFC08
7FFFFC18
7FFFFC10
3FFFF830
3FFFF820
1FFFF040
0FFFF080
07FFE100
03FFC600
00FFB800
001FC000
ENDCHAR
STARTCHAR 0045
ENCODING 69
SWIDTH 990 0
DWIDTH 33 0
BBX 30 30 2 1
BITMAP
001FE000
00FF3800
03FF8600
07FFC100
0FFFC080
1FFFE040
3FFFE020
3FFFE030
7FFFF010
7FFFF018
FFFFF008
FFFFF008
FFFFF008
FFFFF00C
FFFFF004
FFFFF004
FFFFF00C
FFFFF008
FFFFF008
FFFFF008
7FFFF018
7FFFF010
3FFFE030
3FFFE020
1FFFE040
0FFFC080
07FFC100
03FF8600
00FF3800
001FC000
ENDCHAR
STARTCHAR 0046
ENCODING 70
SWIDTH 990 0
DWIDTH 33 0
BBX 30 30 2 1
BITMAP
001FE000
00FE3800
03FF0600
07FF0100
0FFF8080
1FFF8040
3FFF8020
3FFF8030
7FFF8010
7FFF8018
FFFF8008
FFFFC008
FFFFC008
FFFFC00C
FFFFC004
FFFFC004
FFFFC00C
FFFFC008
FFFFC008
FFFF8008
7FFF8018
7FFF8010
3FFF8030
3FFF8020
1FFF8040
0FFF8080
07FF0100
03FF0600
00FF3800
001FC000
ENDCHAR
STARTCHAR 0047
ENCODING 71
SWIDTH 990 0
DWIDTH 33 0
BBX 30 30 2 1
BITMAP
001FE000
00FE3800
03FE0600
07FE0100
0FFE0080
1FFE0040
3FFE0020
3FFE0030
7FFE0010
7FFE0018
FFFE0008
FFFE0008
FFFE0008
FFFE000C
FFFE0004
FFFE0004
FFFE000C
FFFE0008
FFFE0008
FFFE0008
7FFE0018
7FFE0010
3FFE0030
3FFE0020
1FFE0040
0FFE0080
07FE0100
03FE0600
00FE3800
001FC000
ENDCHAR
STARTCHAR 0048
ENCODING 72
SWIDTH 990 0
DWIDTH 33 0
BBX 30 30 2 1
BITMAP
001FE000
00FC3800
03F80600
07F80100
0FF80080
1FF00040
3FF00020
3FF00030
7FF00010
7FF00018
FFF00008
FFF00008
FFF00008
FFF0000C
FFF00004
FFF00004
FFF0000C
FFF00008
FFF00008
FFF00008
7FF00018
7FF00010
3FF00030
3FF00020
1FF00040
0FF80080
07F80100
03F80600
00FC3800
001FC000
ENDCHAR
STARTCHAR 0049
ENCODING 73
SWIDTH 990 0
DWIDTH 33 0
BBX 30 30 2 1
BITMAP
001FE000
00F83800
03F00600
07E00100
0FE00080
1FE00040
3FC00020
3FC00030
7FC00010
7FC00018
FF800008
FF800008
FF800008
FF80000C
FF800004
FF800004
FF80000C
FF800008
FF800008
FF800008
7FC00018
7FC00010
3FC00030
3FC00020
1FE00040
0FE00080
07F00100
03F00600
00F83800
001FC000
ENDCHAR
STARTCHAR 004A
ENCODING 74
SWIDTH 990 0
DWIDTH 33 0
BBX 30 30 2 1
BITMAP
001FE000
00F03800
03E00600
07C00100
0F800080
1F800040
3F000020
3F000030
7F000010
7E000018
FE000008
FE000008
FE000008
FE00000C
FE000004
FE000004
FE00000C
FE000008
FE000008
FE000008
7E000018
7F000010
3F000030
3F000020
1F800040
0F800080
07C00100
03E00600
00F83800
001FC000
ENDCHAR
STARTCHAR 004B
ENCODING 75
SWIDTH 990 0
DWIDTH 33 0
BBX 30 30 2 1
BITMAP
001FE000
00F03800
03C00600
07800100
0F000080
1E000040
3E000020
3C000030
7C000010
7C000018
F8000008
F8000008
F8000008
F800000C
F8000004
F8000004
F800000C
F8000008
F8000008
F8000008
7C000018
7C000010
3C000030
3E000020
1E000040
0F000080
07800100
03C00600
00F03800
001FC000
ENDCHAR
STARTCHAR 004C
ENCODING 76
SWIDTH 990 0
DWIDTH 33 0
BBX 30 30 2 1
BITMAP
001FE000
00E03800
03800600
07000100
0E000080
1C000040
3C000020
38000030
78000010
70000018
F0000008
F0000008
E0000008
E000000C
E0000004
E0000004
E000000C
E0000008
F0000008
F0000008
70000018
78000010
38000030
3C000020
1C000040
0E000080
07000100
03C00600
00F03800
001FC000
ENDCHAR
STARTCHAR 004D
ENCODING 77
SWIDTH 990 0
DWIDTH 33 0
BBX 30 30 2 1
BITMAP
001FE000
00E03800
03800600
06000100
0C000080
18000040
30000020
30000030
60000010
60000018
E0000008
C0000008
C0000008
C000000C
C0000004
C0000004
C000000C
C0000008
C0000008
E0000008
60000018
60000010
30000030
38000020
18000040
0C000080
06000100
03800600
00E03800
001FC000
ENDCHAR
STARTCHAR 004E
ENCODING 78
SWIDTH 990 0
DWIDTH 33 0
BBX 30 30 2 1
BITMAP
001FE000
00E03800
03000E00
06000300
08000180
100000C0
30000060
20000070
40000030
40000038
80000018
80000018
80000018
8000001C
8000001C
8000001C
8000001C
80000018
80000018
80000018
40000038
40000030
20000070
30000060
100000C0
08000180
06000300
03000E00
00E03800
001FC000
ENDCHAR
STARTCHAR 004F
ENCODING 79
SWIDTH 990 0
DWIDTH 33 0
BBX 30 30 2 1
BITMAP
001FE000
00E03800
03000E00
06000700
08000380
100001C0
300000E0
200000F0
40000070
40000078
80000078
80000038
80000038
8000003C
8000003C
8000003C
8000003C
80000038
80000038
80000078
40000078
40000070
200000F0
300000E0
100001C0
08000380
06000700
03000E00
00E03800
001FC000
ENDCHAR
STARTCHAR 0050
ENCODING 80
SWIDTH 990 0
DWIDTH 33 0
BBX 30 30 2 1
BITMAP
001FE000
00E07800
03001E00
06000F00
08000780
100003C0
300003E0
200001F0
400001F0
400000F8
800000F8
800000F8
800000F8
800000FC
800000FC
800000FC
800000FC
800000F8
800000F8
800000F8
400000F8
400001F0
200001F0
300003E0
100003C0
08000780
06000F00
03001E00
00E07800
001FC000
ENDCHAR
STARTCHAR 0051
ENCODING 81
SWIDTH 990 0
DWIDTH 33 0
BBX 30 30 2 1
BITMAP
001FE000
00E07800
03003E00
06001F00
08000F80
10000FC0
300007E0
200007F0
400003F0
400003F8
800003F8
800003F8
800003F8
800003FC
800003FC
800003FC
800003FC
800003F8
800003F8
800003F8
400003F8
400003F0
200007F0
300007E0
10000FC0
08000F80
06001F00
03003E00
00E07800
001FC000
ENDCHAR
STARTCHAR 0052
ENCODING 82
SWIDTH 990 0
DWIDTH 33 0
BBX 30 30 2 1
BITMAP
001FE000
00E0F800
03007E00
06003F00
08003F80
10001FC0
30001FE0
20001FF0
40000FF0
40000FF8
80000FF8
80000FF8
80000FF8
80000FFC
80000FFC
80000FFC
80000FFC
80000FF8
80000FF8
80000FF8
40000FF8
40000FF0
20001FF0
30001FE0
10001FC0
08003F80
06003F00
03007E00
00E0F800
001FC000
ENDCHAR
STARTCHAR 0053
ENCODING 83
SWIDTH 990 0
DWIDTH 33 0
BBX 30 30 2 1
BITMAP
001FE000
00E1F800
0300FE00
0600FF00
08007F80
10007FC0
30007FE0
20007FF0
40007FF0
40007FF8
80007FF8
80003FF8
80003FF8
80003FFC
80003FFC
80003FFC
80003FFC
80003FF8
80003FF8
80007FF8
40007FF8
40007FF0
20007FF0
30007FE0
10007FC0
08007F80
0600FF00
0300FE00
00E1F800
001FC000
ENDCHAR
STARTCHAR 0054
ENCODING 84
SWIDTH 990 0
DWIDTH 33 0
BBX 30 30 2 1
BITMAP
001FE000
00E1F800
0301FE00
0601FF00
0801FF80
1001FFC0
3001FFE0
2001FFF0
4001FFF0
4001FFF8
8001FFF8
8001FFF8
8001FFF8
8001FFFC
8001FFFC
8001FFFC
8001FFFC
8001FFF8
8001FFF8
8001FFF8
4001FFF8
4001FFF0
2001FFF0
3001FFE0
1001FFC0
0801FF80
0601FF00
0301FE00
00E1F800
001FC000
ENDCHAR
STARTCHAR 0055
ENCODING 85
SWIDTH 990 0
DWIDTH 33 0
BBX 30 30 2 1
BITMAP
001FE000
00E3F800
0307FE00
0607FF00
0807FF80
100FFFC0
300FFFE0
200FFFF0
400FFFF0
400FFFF8
800FFFF8
800FFFF8
800FFFF8
800FFFFC
800FFFFC
800FFFFC
800FFFFC
800FFFF8
800FFFF8
800FFFF8
400FFFF8
400FFFF0
200FFFF0
300FFFE0
100FFFC0
0807FF80
0607FF00
0307FE00
00E3F800
001FC000
ENDCHAR
STARTCHAR 0056
ENCODING 86
SWIDTH 990 0
DWIDTH 33 0
BBX 30 30 2 1
BITMAP
001FE000
00E7F800
030FFE00
061FFF00
081FFF80
101FFFC0
303FFFE0
203FFFF0
403FFFF0
403FFFF8
807FFFF8
807FFFF8
807FFFF8
807FFFFC
807FFFFC
807FFFFC
807FFFFC
807FFFF8
807FFFF8
807FFFF8
403FFFF8
403FFFF0
203FFFF0
303FFFE0
101FFFC0
081FFF80
061FFF00
030FFE00
00E7F800
001FC000
ENDCHAR
STARTCHAR 0057
ENCODING 87
SWIDTH 990 0
DWIDTH 33 0
BBX 30 30 2 1
BITMAP
001FE000
00EFF800
031FFE00
063FFF00
087FFF80
107FFFC0
30FFFFE0
20FFFFF0
40FFFFF0
41FFFFF8
81FFFFF8
81FFFFF8
81FFFFF8
81FFFFFC
81FFFFFC
81FFFFFC
81FFFFFC
81FFFFF8
81FFFFF8
81FFFFF8
41FFFFF8
40FFFFF0
20FFFFF0
30FFFFE0
107FFFC0
087FFF80
063FFF00
031FFE00
00EFF800
001FC000
ENDCHAR
STARTCHAR 0058
ENCODING 88
SWIDTH 990 0
DWIDTH 33 0
BBX 30 30 2 1
BITMAP
001FE000
00EFF800
033FFE00
067FFF00
08FFFF80
11FFFFC0
31FFFFE0
23FFFFF0
43FFFFF0
43FFFFF8
87FFFFF8
87FFFFF8
87FFFFF8
87FFFFFC
87FFFFFC
87FFFFFC
87FFFFFC
87FFFFF8
87FFFFF8
87FFFFF8
43FFFFF8
43FFFFF0
23FFFFF0
31FFFFE0
11FFFFC0
08FFFF80
067FFF00
033FFE00
00EFF800
001FC000
ENDCHAR
STARTCHAR 0059
ENCODING 89
SWIDTH 990 0
DWIDTH 33 0
BBX 30 30 2 1
BITMAP
001FE000
00EFF800
037FFE00
06FFFF00
09FFFF80
13FFFFC0
33FFFFE0
27FFFFF0
47FFFFF0
4FFFFFF8
8FFFFFF8
8FFFFFF8
9FFFFFF8
9FFFFFFC
9FFFFFFC
9FFFFFFC
9FFFFFFC
9FFFFFF8
8FFFFFF8
8FFFFFF8
4FFFFFF8
47FFFFF0
27FFFFF0
33FFFFE0
13FFFFC0
09FFFF80
06FFFF00
037FFE00
00FFF800
001FC000
ENDCHAR
STARTCHAR 005A
ENCODING 90
SWIDTH 990 0
DWIDTH 33 0
BBX 30 30 2 1
BITMAP
001FE000
00FFF800
037FFE00
07FFFF00
0BFFFF80
17FFFFC0
37FFFFE0
2FFFFFF0
5FFFFFF0
5FFFFFF8
9FFFFFF8
BFFFFFF8
BFFFFFF8
BFFFFFFC
BFFFFFFC
BFFFFFFC
BFFFFFFC
BFFFFFF8
BFFFFFF8
BFFFFFF8
5FFFFFF8
5FFFFFF0
2FFFFFF0
3FFFFFE0
17FFFFC0
0BFFFF80
07FFFF00
037FFE00
00FFF800
001FC000
ENDCHAR
STARTCHAR 0061
ENCODING 97
SWIDTH 960 0
DWIDTH 32 0
BBX 14 28 17 2
BITMAP
E000
1C00
0300
0080
0040
0020
0020
0010
0010
0008
0008
0008
0008
000C
000C
0008
0008
0008
0008
0018
0010
0020
0020
0040
0080
0100
0600
E800
ENDCHAR
STARTCHAR 0062
ENCODING 98
SWIDTH 960 0
DWIDTH 32 0
BBX 14 28 17 2
BITMAP
E000
1C00
0300
0180
00C0
0060
0060
0030
0030
0038
0018
0018
0018
001C
001C
0018
0018
0018
0038
0038
0030
0060
0060
00C0
0180
0300
0400
F800
ENDCHAR
STARTCHAR 0063
ENCODING 99
SWIDTH 960 0
DWIDTH 32 0
BBX 14 28 17 2
BITMAP
E000
1C00
0700
0380
01C0
01E0
00E0
00F0
0070
0078
0078
0078
0078
007C
007C
0078
0078
0078
0078
0078
00F0
00E0
01E0
01C0
0380
0700
0C00
E000
ENDCHAR
STARTCHAR 0064
ENCODING 100
SWIDTH 960 0
DWIDTH 32 0
BBX 14 28 17 2
BITMAP
E000
1C00
0F00
0780
07C0
03E0
03E0
01F0
01F0
01F8
01F8
01F8
01F8
01FC
01FC
01F8
01F8
01F8
01F8
01F8
01F0
03E0
03E0
07C0
0780
0F00
1C00
E000
ENDCHAR
STARTCHAR 0065
ENCODING 101
SWIDTH 960 0
DWIDTH 32 0
BBX 14 28 17 2
BITMAP
E000
3C00
1F00
1F80
0FC0
0FE0
0FE0
07F0
07F0
07F8
07F8
07F8
07F8
07FC
07FC
07F8
07F8
07F8
07F8
07F8
07F0
0FE0
0FE0
0FC0
1F80
1F00
3C00
F000
ENDCHAR
STARTCHAR 0066
ENCODING 102
SWIDTH 960 0
DWIDTH 32 0
BBX 14 28 17 2
BITMAP
E000
7C00
7F00
3F80
3FC0
3FE0
3FE0
3FF0
3FF0
3FF8
1FF8
1FF8
1FF8
1FFC
1FFC
1FF8
1FF8
1FF8
3FF8
3FF8
3FF0
3FE0
3FE0
3FC0
3F80
7F00
7C00
E000
ENDCHAR
STARTCHAR 0067
ENCODING 103
SWIDTH 960 0
DWIDTH 32 0
BBX 14 28 17 2
BITMAP
E000
FC00
FF00
FF80
FFC0
FFE0
FFE0
FFF0
FFF0
FFF8
FFF8
FFF8
FFF8
FFFC
FFFC
FFF8
FFF8
FFF8
FFF8
FFF8
FFF0
FFE0
FFE0
FFC0
FF80
FF00
FC00
E000
ENDCHAR
STARTCHAR 0068
ENCODING 104
SWIDTH 960 0
DWIDTH 32 0
BBX 17 28 14 2
BITMAP
3C0000
7F8000
7FE000
7FF000
FFF800
FFFC00
FFFC00
FFFE00
FFFE00
FFFF00
FFFF00
FFFF00
FFFF00
FFFF80
FFFF80
FFFF00
FFFF00
FFFF00
FFFF00
FFFF00
FFFE00
FFFC00
FFFC00
FFF800
7FF000
7FE000
7F8000
3E0000
ENDCHAR
STARTCHAR 0069
ENCODING 105
SWIDTH 960 0
DWIDTH 32 0
BBX 20 28 11 2
BITMAP
0F8000
1FF000
3FFC00
3FFE00
3FFF00
7FFF80
7FFF80
7FFFC0
FFFFC0
FFFFE0
FFFFE0
FFFFE0
FFFFE0
FFFFF0
FFFFF0
FFFFE0
FFFFE0
FFFFE0
FFFFE0
FFFFE0
7FFFC0
7FFF80
7FFF80
3FFF00
3FFE00
3FFC00
1FF000
0F8000
ENDCHAR
STARTCHAR 006A
ENCODING 106
SWIDTH 960 0
DWIDTH 32 0
BBX 22 28 9 2
BITMAP
07E000
0FFC00
1FFF00
3FFF80
3FFFC0
7FFFE0
7FFFE0
7FFFF0
FFFFF0
FFFFF8
FFFFF8
FFFFF8
FFFFF8
FFFFFC
FFFFFC
FFFFF8
FFFFF8
FFFFF8
FFFFF8
FFFFF8
7FFFF0
7FFFE0
7FFFE0
3FFFC0
3FFF80
1FFF00
0FFC00
07E000
ENDCHAR
STARTCHAR 006B
ENCODING 107
SWIDTH 960 0
DWIDTH 32 0
BBX 24 28 7 2
BITMAP
01F800
07FF00
0FFFC0
1FFFE0
3FFFF0
3FFFF8
7FFFF8
7FFFFC
7FFFFC
FFFFFE
FFFFFE
FFFFFE
FFFFFE
FFFFFF
FFFFFF
FFFFFE
FFFFFE
FFFFFE
FFFFFE
7FFFFE
7FFFFC
7FFFF8
3FFFF8
3FFFF0
1FFFE0
0FFFC0
07FF00
01FC00
ENDCHAR
STARTCHAR 006C
ENCODING 108
SWIDTH 960 0
DWIDTH 32 0
BBX 26 28 5 2
BITMAP
007E0000
03FFC000
07FFF000
0FFFF800
1FFFFC00
1FFFFE00
3FFFFE00
3FFFFF00
7FFFFF00
7FFFFF80
7FFFFF80
FFFFFF80
FFFFFF80
FFFFFFC0
FFFFFFC0
FFFFFF80
FFFFFF80
7FFFFF80
7FFFFF80
7FFFFF80
3FFFFF00
3FFFFE00
1FFFFE00
1FFFFC00
0FFFF800
07FFF000
03FFC000
00FE0000
ENDCHAR
STARTCHAR 006D
ENCODING 109
SWIDTH 960 0
DWIDTH 32 0
BBX 27 28 4 2
BITMAP
007F0000
01FFE000
07FFF800
0FFFFC00
1FFFFE00
1FFFFF00
3FFFFF00
7FFFFF80
7FFFFF80
7FFFFFC0
FFFFFFC0
FFFFFFC0
FFFFFFC0
FFFFFFE0
FFFFFFE0
FFFFFFC0
FFFFFFC0
FFFFFFC0
FFFFFFC0
7FFFFFC0
7FFFFF80
3FFFFF00
3FFFFF00
1FFFFE00
0FFFFC00
07FFF800
01FFE000
007F0000
ENDCHAR
STARTCHAR 006E
ENCODING 110
SWIDTH 960 0
DWIDTH 32 0
BBX 26 28 3 2
BITMAP
003F8000
01FFE000
03FFF800
0FFFFC00
1FFFFE00
1FFFFF00
3FFFFF00
7FFFFF80
7FFFFF80
FFFFFFC0
FFFFFFC0
FFFFFFC0
FFFFFFC0
FFFFFFC0
FFFFFFC0
FFFFFFC0
FFFFFFC0
FFFFFFC0
FFFFFFC0
7FFFFF80
7FFFFF80
3FFFFF00
3FFFFF00
1FFFFE00
0FFFFC00
03FFF800
01FFE000
003F8000
ENDCHAR
STARTCHAR 006F
ENCODING 111
SWIDTH 960 0
DWIDTH 32 0
BBX 25 28 3 2
BITMAP
003F8000
01FFE000
03FFF000
0FFFF800
1FFFFC00
1FFFFE00
3FFFFE00
7FFFFF00
7FFFFF00
FFFFFF00
FFFFFF80
FFFFFF80
FFFFFF80
FFFFFF80
FFFFFF80
FFFFFF80
FFFFFF80
FFFFFF80
FFFFFF00
7FFFFF00
7FFFFF00
3FFFFE00
3FFFFE00
1FFFFC00
0FFFF800
03FFF000
01FFE000
003F8000
ENDCHAR
STARTCHAR 0070
ENCODING 112
SWIDTH 960 0
DWIDTH 32 0
BBX 23 28 3 2
BITMAP
003F00
01FFC0
03FFE0
0FFFF0
1FFFF8
1FFFF8
3FFFFC
7FFFFC
7FFFFE
FFFFFE
FFFFFE
FFFFFE
FFFFFE
FFFFFE
FFFFFE
FFFFFE
FFFFFE
FFFFFE
FFFFFE
7FFFFE
7FFFFC
3FFFFC
3FFFF8
1FFFF8
0FFFF0
03FFE0
01FFC0
003F00
ENDCHAR
STARTCHAR 0071
ENCODING 113
SWIDTH 960 0
DWIDTH 32 0
BBX 21 28 3 2
BITMAP
003F00
01FF80
03FFC0
0FFFE0
1FFFE0
1FFFF0
3FFFF0
7FFFF8
7FFFF8
FFFFF8
FFFFF8
FFFFF8
FFFFF8
FFFFF8
FFFFF8
FFFFF8
FFFFF8
FFFFF8
FFFFF8
7FFFF8
7FFFF8
3FFFF0
3FFFF0
1FFFE0
0FFFE0
03FFC0
01FF80
003F00
ENDCHAR
STARTCHAR 0072
ENCODING 114
SWIDTH 960 0
DWIDTH 32 0
BBX 19 28 3 2
BITMAP
003E00
01FF00
03FF80
0FFF80
1FFFC0
1FFFC0
3FFFC0
7FFFE0
7FFFE0
FFFFE0
FFFFE0
FFFFE0
FFFFE0
FFFFE0
FFFFE0
FFFFE0
FFFFE0
FFFFE0
FFFFE0
7FFFE0
7FFFE0
3FFFC0
3FFFC0
1FFFC0
0FFF80
03FF80
01FF00
003E00
ENDCHAR
STARTCHAR 0073
ENCODING 115
SWIDTH 960 0
DWIDTH 32 0
BBX 17 28 3 2
BITMAP
003C00
01FE00
03FE00
0FFF00
1FFF00
1FFF00
3FFF00
7FFF00
7FFF00
FFFF00
FFFF80
FFFF80
FFFF80
FFFF80
FFFF80
FFFF80
FFFF80
FFFF80
FFFF00
7FFF00
7FFF00
3FFF00
3FFF00
1FFF00
0FFF00
03FE00
01FE00
003E00
ENDCHAR
STARTCHAR 0074
ENCODING 116
SWIDTH 960 0
DWIDTH 32 0
BBX 14 28 3 2
BITMAP
003C
01FC
03FC
0FFC
1FFC
1FFC
3FFC
7FFC
7FFC
FFFC
FFFC
FFFC
FFFC
FFFC
FFFC
FFFC
FFFC
FFFC
FFFC
7FFC
7FFC
3FFC
3FFC
1FFC
0FFC
03FC
01FC
003C
ENDCHAR
STARTCHAR 0075
ENCODING 117
SWIDTH 960 0
DWIDTH 32 0
BBX 14 28 3 2
BITMAP
003C
01F0
03F0
0FF0
1FE0
1FE0
3FE0
7FE0
7FE0
FFE0
FFE0
FFE0
FFE0
FFE0
FFE0
FFE0
FFE0
FFE0
FFE0
7FE0
7FE0
3FE0
3FE0
1FE0
0FF0
03F0
01F0
003C
ENDCHAR
STARTCHAR 0076
ENCODING 118
SWIDTH 960 0
DWIDTH 32 0
BBX 14 28 3 2
BITMAP
003C
01E0
03C0
0FC0
1FC0
1F80
3F80
7F80
7F00
FF00
FF00
FF00
FF00
FF00
FF00
FF00
FF00
FF00
FF00
7F80
7F80
3F80
3F80
1FC0
0FC0
03C0
01E0
003C
ENDCHAR
STARTCHAR 0077
ENCODING 119
SWIDTH 960 0
DWIDTH 32 0
BBX 14 28 3 2
BITMAP
002C
01C0
0380
0F00
1F00
1E00
3E00
7E00
7C00
FC00
FC00
FC00
FC00
FC00
FC00
FC00
FC00
FC00
FC00
7C00
7E00
3E00
3E00
1F00
0F00
0380
01C0
003C
ENDCHAR
STARTCHAR 0078
ENCODING 120
SWIDTH 960 0
DWIDTH 32 0
BBX 14 28 3 2
BITMAP
003C
01C0
0300
0E00
1C00
1C00
3800
7800
7800
F000
F000
F000
F000
F000
F000
F000
F000
F000
F000
7800
7800
3800
3C00
1C00
0E00
0300
0180
007C
ENDCHAR
STARTCHAR 0079
ENCODING 121
SWIDTH 960 0
DWIDTH 32 0
BBX 14 28 3 2
BITMAP
005C
0100
0200
0C00
1800
1800
3000
7000
6000
E000
E000
C000
C000
C000
C000
C000
C000
E000
E000
6000
7000
3000
3800
1800
0C00
0200
0100
00FC
ENDCHAR
STARTCHAR 007A
ENCODING 122
SWIDTH 960 0
DWIDTH 32 0
BBX 14 28 3 2
BITMAP
007C
0180
0600
0800
1000
2000
2000
4000
4000
C000
8000
8000
8000
8000
8000
8000
8000
8000
C000
4000
4000
2000
3000
1000
0800
0400
0300
00FC
ENDCHAR
STARTCHAR 00A9
ENCODING 169
SWIDTH 840 0
DWIDTH 28 0
BBX 26 33 0 0
BITMAP
A00F0000
BFEBFFC0
F7ADFFC0
08000800
00000000
00110000
00130000
00110000
00000000
00000000
1CBFA000
1A96BE00
0CB79C00
00000400
10010000
3EEAD700
277A5D00
1B79DF00
00000080
00000000
00000000
00000000
00000000
00000000
03008000
03FCF800
02C8F000
00340000
00000000
00008000
7FFFAF80
7DF7AF80
48001200
ENDCHAR
ENDFONT
